<?xml version="1.0" encoding="UTF-8" standalone="no"?>
<!-- Created with Inkscape (http://www.inkscape.org/) -->

<svg
   xmlns:dc="http://purl.org/dc/elements/1.1/"
   xmlns:cc="http://creativecommons.org/ns#"
   xmlns:rdf="http://www.w3.org/1999/02/22-rdf-syntax-ns#"
   xmlns:svg="http://www.w3.org/2000/svg"
   xmlns="http://www.w3.org/2000/svg"
   xmlns:sodipodi="http://sodipodi.sourceforge.net/DTD/sodipodi-0.dtd"
   xmlns:inkscape="http://www.inkscape.org/namespaces/inkscape"
   width="92.800003mm"
   height="24.4mm"
   viewBox="0 0 92.800003 24.4"
   version="1.1"
   id="svg838"
   inkscape:version="0.92.0 r15299"
   sodipodi:docname="pax labs.svg">
  <defs
     id="defs832">
    <style
       id="style242">.bcst0{fill-rule:evenodd;clip-rule:evenodd}</style>
  </defs>
  <sodipodi:namedview
     id="base"
     pagecolor="#ffffff"
     bordercolor="#666666"
     borderopacity="1.0"
     inkscape:pageopacity="0.0"
     inkscape:pageshadow="2"
     inkscape:zoom="2.5853077"
     inkscape:cx="173.48031"
     inkscape:cy="44.220472"
     inkscape:document-units="mm"
     inkscape:current-layer="layer1"
     showgrid="false"
     fit-margin-top="0"
     fit-margin-left="0"
     fit-margin-right="0"
     fit-margin-bottom="0"
     inkscape:window-width="1280"
     inkscape:window-height="744"
     inkscape:window-x="-4"
     inkscape:window-y="-4"
     inkscape:window-maximized="1" />
  <metadata
     id="metadata835">
    <rdf:RDF>
      <cc:Work
         rdf:about="">
        <dc:format>image/svg+xml</dc:format>
        <dc:type
           rdf:resource="http://purl.org/dc/dcmitype/StillImage" />
        <dc:title></dc:title>
      </cc:Work>
    </rdf:RDF>
  </metadata>
  <g
     inkscape:label="Layer 1"
     inkscape:groupmode="layer"
     id="layer1"
     transform="translate(-4.9,0.60000152)">
    <g
       id="g869">
      <path
         style="clip-rule:evenodd;fill-rule:evenodd"
         inkscape:connector-curvature="0"
         class="bcst0"
         d="m 24.100002,1.8999983 c 0,0 -0.6,-0.5 -0.7,-0.5 -1,-0.80000001 -2.2,-1.30000001 -3.5,-1.4000000107349 h -1 -11.5000005 c -1.1,0 -2,0.9000000007349 -2,2.0000000107349 V 21.299998 c 0,1.1 0.9,2 2,2 1.1,0 2,-0.9 2,-2 v -6.6 h 9.9000005 c 1.8,-0.1 3.5,-0.8 4.8,-2 l 0.5,-0.5 c 0.4,-0.4 0.7,-0.8 0.9,-1.2 0.6,-1.0999997 1,-2.2999997 1,-3.6999997 -0.1,-2.2 -1,-4.1 -2.4,-5.4 z m -5.1,9.1999997 H 9.4000015 V 3.3999983 h 9.6000005 c 2.1,0 3.8,1.7 3.8,3.8 0,2.2 -1.7,3.8999997 -3.8,3.8999997 z"
         id="path244" />
      <path
         inkscape:connector-curvature="0"
         d="m 57.900002,20.399998 -5.1,-10.9999997 -3.6,-8.1 c -0.3,-0.70000001 -0.9,-1.3000000107349 -1.6,-1.40000001 h -1.9 -0.3 c -0.8,0.099999999265 -1.4,0.7 -1.7,1.40000001 l -3.6,8.1 -5.1,10.9999997 c -0.5,1.1 0.2,2.4 1.3,2.7 0.1,0 0.2,0 0.3,0.1 h 0.3 c 0.7,-0.1 1.3,-0.5 1.6,-1.1 l 1.7,-3.9 h 12.2 l 1.7,3.9 c 0.3,0.6 0.9,1 1.6,1.1 h 0.3 c 0.1,0 0.2,0 0.3,-0.1 1.4,-0.3 2.1,-1.6 1.6,-2.7 z m -11.4,-15.9999997 4.7,10.1999997 h -9.3 z"
         id="path246" />
      <path
         style="clip-rule:evenodd;fill-rule:evenodd"
         inkscape:connector-curvature="0"
         class="bcst0"
         d="m 72.800002,0.49999829 c -0.8,-0.8 -2.2,-0.8 -3,0 -0.8,0.80000001 -0.8,2.20000001 0,3.00000001 l 5,5 c 0.8,0.8 2.2,0.8 3,0 0.8,-0.8 0.8,-2.2 0,-3 z m 14,13.99999971 c -0.8,-0.8 -2.2,-0.8 -3,0 -0.8,0.8 -0.8,2.2 0,3 l 5,5 c 0.8,0.8 2.2,0.8 3,0 0.8,-0.8 0.8,-2.2 0,-3 z m -3,-5.9999997 c 0.8,0.8 2.2,0.8 3,0 l 5,-5 c 0.8,-0.8 0.8,-2.2 0,-3.00000001 -0.8,-0.8 -2.2,-0.8 -3,0 l -5,5.00000001 c -0.8,0.8 -0.8,2.2 0,3 z m -6,5.9999997 c -0.8,-0.8 -2.2,-0.8 -3,0 l -5,5 c -0.8,0.8 -0.8,2.2 0,3 0.8,0.8 2.2,0.8 3,0 l 5,-5 c 0.8,-0.8 0.8,-2.2 0,-3 z"
         id="path248" />
      <path
         id="path250"
         d="m 96.500002,0.09999829 c 0.1,0.1 0.3,0.1 0.4,0.2 0.1,0.1 0.2,0.2 0.2,0.4 0.1,0.1 0.1,0.3 0.1,0.50000001 0,0.2 0,0.3 -0.1,0.5 -0.1,0.1 -0.1,0.3 -0.2,0.4 -0.1,0.1 -0.2,0.2 -0.4,0.2 -0.1,0.1 -0.3,0.1 -0.5,0.1 -0.2,0 -0.3,0 -0.5,-0.1 -0.1,-0.1 -0.3,-0.1 -0.4,-0.2 -0.1,-0.1 -0.2,-0.2 -0.2,-0.4 -0.1,-0.1 -0.1,-0.3 -0.1,-0.5 0,-0.20000001 0,-0.30000001 0.1,-0.50000001 0.1,-0.1 0.1,-0.3 0.2,-0.4 0.1,-0.1 0.2,-0.2 0.4,-0.2 0.1,-0.1000000007349 0.3,-0.1000000007349 0.5,-0.1000000007349 0.2,0 0.3,0.1000000007349 0.5,0.1000000007349 z m -0.9,0.2 c -0.1,0 -0.2,0.1 -0.3,0.2 -0.1,0.1 -0.2,0.2 -0.2,0.3 0,0.1 -0.1,0.30000001 -0.1,0.40000001 0,0.1 0,0.3 0.1,0.4 0,0.1 0.1,0.2 0.2,0.3 0.1,0.1 0.2,0.2 0.3,0.2 0.1,0.1 0.3,0.1 0.4,0.1 0.1,0 0.3,0 0.4,-0.1 0.1,-0.1 0.2,-0.1 0.3,-0.2 0.1,-0.1 0.2,-0.2 0.2,-0.3 0.1,-0.1 0.1,-0.3 0.1,-0.4 0,-0.1 0,-0.30000001 -0.1,-0.40000001 -0.1,-0.1 -0.1,-0.2 -0.2,-0.3 -0.1,-0.1 -0.2,-0.2 -0.3,-0.2 -0.1,-0.1 -0.3,-0.1 -0.4,-0.1 -0.1,0 -0.3,0 -0.4,0.1 z m 0,1.60000001 V 0.49999829 h 0.5 c 0.2,0 0.3,0 0.3,0.1 0.1,0.1 0.1,0.2 0.1,0.3 V 1.0999983 c 0,0 0,0.1 -0.1,0.1 l -0.1,0.1 h -0.1 l 0.4,0.6 h -0.2 l -0.4,-0.6 h -0.3 v 0.6 z m 0.5,-0.8 h 0.1 c 0,0 0.1,0 0.1,-0.10000001 v -0.1 -0.1 c 0,0 0,-0.1 -0.1,-0.1 h -0.1 -0.4 V 1.1999983 h 0.2 c 0.1,-0.1 0.2,-0.1 0.2,-0.1 z"
         inkscape:connector-curvature="0" />
    </g>
  </g>
</svg>
